<svg id="kity_svg_6" xmlns="http://www.w3.org/2000/svg" xmlns:xlink="http://www.w3.org/1999/xlink" version="1.1" width="1479" height="325" style="display: inline; background: rgb(251, 251, 251);" viewBox="0 0 1479 325"><defs id="kity_defs_7"><linearGradient id="kity_linearGradient_17" x1="0" y1="0" x2="0" y2="1"><stop id="kity_stop_18" offset="0" stop-color="rgb(255, 255, 255)"></stop><stop id="kity_stop_19" offset="1" stop-color="rgb(204, 204, 204)"></stop></linearGradient><marker id="kity_marker_2" orient="auto" refX="6" refY="0" viewBox="-7 -7 14 14" markerWidth="7" markerHeight="7" markerUnits="userSpaceOnUse"><path id="kity_path_3" fill="rgb(115, 161, 191)" stroke="none" d="M6,0A6,6,0,1,1,-6,0A6,6,0,1,1,6,0"></path></marker></defs><g id="kity_g_8"><g id="minder1" text-rendering="optimize-speed"><g id="minder_connect_group1"><path id="kity_path_31" fill="none" stroke="rgb(115, 161, 191)" stroke-width="1" d="M390.5,186.5A184,0.5,0,0,0,574.5,187"></path><path id="kity_path_33" fill="none" stroke="rgb(115, 161, 191)" stroke-width="1" d="M704.5,187C719.5,187,719.5,97.5,734.5,97.5L892.5,97.5"></path><path id="kity_path_35" fill="none" stroke="rgb(115, 161, 191)" stroke-width="1" d="M892.5,97.5C907.5,97.5,907.5,45.5,922.5,45.5L1069.5,45.5"></path><path id="kity_path_37" fill="none" stroke="rgb(115, 161, 191)" stroke-width="1" d="M1069.5,45.5C1084.5,45.5,1084.5,45.5,1099.5,45.5L1237.5,45.5"></path><path id="kity_path_39" fill="none" stroke="rgb(115, 161, 191)" stroke-width="1" d="M892.5,97.5C907.5,97.5,907.5,149.5,922.5,149.5L1025.5,149.5"></path><path id="kity_path_41" fill="none" stroke="rgb(115, 161, 191)" stroke-width="1" d="M1025.5,149.5C1040.5,149.5,1040.5,97.5,1055.5,97.5L1163.5,97.5"></path><path id="kity_path_43" fill="none" stroke="rgb(115, 161, 191)" stroke-width="1" d="M1025.5,149.5C1040.5,149.5,1040.5,201.5,1055.5,201.5L1148.5,201.5"></path><path id="kity_path_45" fill="none" stroke="rgb(115, 161, 191)" stroke-width="1" d="M1148.5,201.5C1163.5,201.5,1163.5,201.5,1178.5,201.5L1291.5,201.5"></path><path id="kity_path_47" fill="none" stroke="rgb(115, 161, 191)" stroke-width="1" d="M1291.5,201.5C1306.5,201.5,1306.5,149.5,1321.5,149.5L1438.5,149.5"></path><path id="kity_path_49" fill="none" stroke="rgb(115, 161, 191)" stroke-width="1" d="M1291.5,201.5C1306.5,201.5,1306.5,201.5,1321.5,201.5L1459.5,201.5"></path><path id="kity_path_51" fill="none" stroke="rgb(115, 161, 191)" stroke-width="1" d="M1291.5,201.5C1306.5,201.5,1306.5,253.5,1321.5,253.5L1429.5,253.5"></path><path id="kity_path_53" fill="none" stroke="rgb(115, 161, 191)" stroke-width="1" d="M704.5,187C719.5,187,719.5,305.5,734.5,305.5L917.5,305.5"></path><path id="kity_path_55" fill="none" stroke="rgb(115, 161, 191)" stroke-width="1" d="M390.5,186.5A184,0.5,0,0,1,206.5,187"></path></g><g id="minder_node1"><path id="node_outline1" fill="rgb(115, 161, 191)" stroke="rgb(57, 80, 96)" d="M329.5,166.5h122a5,5,0,0,1,5,5v30a5,5,0,0,1,-5,5h-122a5,5,0,0,1,-5,-5v-30a5,5,0,0,1,5,-5z" stroke-width="3"></path><g id="node_text1" fill="white"><text id="kity_text_22" text-rendering="inherit" font-size="16" dy=".8em" y="178.5" x="348.5">Iceberg OS</text></g></g><g id="kity_g_12"><path id="kity_path_13" fill="none" stroke="none" d="M348.5,186.5h0v0h0z"></path></g><g id="kity_g_14"><path id="kity_path_15" fill="none" stroke="none" d="M348.5,186.5h0v0h0z"></path><path id="kity_path_16" fill="none" stroke="none"></path></g><g id="minder_node2"><g id="node_expander12" style="cursor: pointer;"><path id="kity_path_131" fill="white" stroke="gray" d="M575.5,187A6,6,0,1,1,563.5,187A6,6,0,1,1,575.5,187"></path><path id="kity_path_132" fill="none" stroke="gray" d="M565,187L574,187"></path></g><path id="node_outline13" fill="rgb(238, 243, 246)" stroke="rgb(115, 161, 191)" d="M579.5,163.5h122a3,3,0,0,1,3,3v41a3,3,0,0,1,-3,3h-122a3,3,0,0,1,-3,-3v-41a3,3,0,0,1,3,-3z" stroke-width="1"></path><g id="node_text13" fill="black"><text id="kity_text_79" text-rendering="inherit" font-size="14" dy=".8em" y="169" x="596.5">Cryst</text><text id="kity_text_80" text-rendering="inherit" font-size="14" dy=".8em" y="190" x="596.5">hybird kernel</text></g></g><g id="minder_node3"><g id="node_expander10" style="cursor: pointer;"><path id="kity_path_125" fill="white" stroke="gray" d="M744.5,83.5A6,6,0,1,1,732.5,83.5A6,6,0,1,1,744.5,83.5"></path><path id="kity_path_126" fill="none" stroke="gray" d="M734,83.5L743,83.5"></path></g><path id="node_outline11" fill="none" stroke="none" d="M749.5,72.5h138a5,5,0,0,1,5,5v12a5,5,0,0,1,-5,5h-138a5,5,0,0,1,-5,-5v-12a5,5,0,0,1,5,-5z"></path><g id="node_text11" fill="black"><text id="kity_text_75" text-rendering="inherit" font-size="12" dy=".8em" y="77.5" x="754.5">Memory management</text></g></g><g id="minder_node4"><g id="node_expander2" style="cursor: pointer;"><path id="kity_path_101" fill="white" stroke="gray" d="M932.5,31.5A6,6,0,1,1,920.5,31.5A6,6,0,1,1,932.5,31.5"></path><path id="kity_path_102" fill="none" stroke="gray" d="M922,31.5L931,31.5"></path></g><path id="node_outline3" fill="none" stroke="none" d="M937.5,20.5h127a5,5,0,0,1,5,5v12a5,5,0,0,1,-5,5h-127a5,5,0,0,1,-5,-5v-12a5,5,0,0,1,5,-5z"></path><g id="node_text3" fill="black"><text id="kity_text_59" text-rendering="inherit" font-size="12" dy=".8em" y="25.5" x="942.5">Processes &amp; threads</text></g></g><g id="minder_node5"><g id="node_expander1" display="none" style="cursor: pointer;"><path id="kity_path_98" fill="white" stroke="gray" d="M1109.5,31.5A6,6,0,1,1,1097.5,31.5A6,6,0,1,1,1109.5,31.5"></path><path id="kity_path_99" fill="none" stroke="gray"></path></g><path id="node_outline2" fill="none" stroke="none" d="M1114.5,20.5h118a5,5,0,0,1,5,5v12a5,5,0,0,1,-5,5h-118a5,5,0,0,1,-5,-5v-12a5,5,0,0,1,5,-5z"></path><g id="node_text2" fill="black"><text id="kity_text_57" text-rendering="inherit" font-size="12" dy=".8em" y="25.5" x="1119.5">Kernel idle process</text></g></g><g id="minder_node6"><g id="node_expander9" style="cursor: pointer;"><path id="kity_path_122" fill="white" stroke="gray" d="M932.5,135.5A6,6,0,1,1,920.5,135.5A6,6,0,1,1,932.5,135.5"></path><path id="kity_path_123" fill="none" stroke="gray" d="M922,135.5L931,135.5"></path></g><path id="node_outline10" fill="none" stroke="none" d="M937.5,124.5h83a5,5,0,0,1,5,5v12a5,5,0,0,1,-5,5h-83a5,5,0,0,1,-5,-5v-12a5,5,0,0,1,5,-5z"></path><g id="node_text10" fill="black"><text id="kity_text_73" text-rendering="inherit" font-size="12" dy=".8em" y="129.5" x="942.5">Driver server</text></g></g><g id="minder_node7"><g id="node_expander3" display="none" style="cursor: pointer;"><path id="kity_path_104" fill="white" stroke="gray" d="M1065.5,83.5A6,6,0,1,1,1053.5,83.5A6,6,0,1,1,1065.5,83.5"></path><path id="kity_path_105" fill="none" stroke="gray"></path></g><path id="node_outline4" fill="none" stroke="none" d="M1070.5,72.5h88a5,5,0,0,1,5,5v12a5,5,0,0,1,-5,5h-88a5,5,0,0,1,-5,-5v-12a5,5,0,0,1,5,-5z"></path><g id="node_text4" fill="black"><text id="kity_text_61" text-rendering="inherit" font-size="12" dy=".8em" y="77.5" x="1075.5">POSIX service</text></g></g><g id="minder_node8"><g id="node_expander8" style="cursor: pointer;"><path id="kity_path_119" fill="white" stroke="gray" d="M1065.5,187.5A6,6,0,1,1,1053.5,187.5A6,6,0,1,1,1065.5,187.5"></path><path id="kity_path_120" fill="none" stroke="gray" d="M1055,187.5L1064,187.5"></path></g><path id="node_outline9" fill="none" stroke="none" d="M1070.5,176.5h73a5,5,0,0,1,5,5v12a5,5,0,0,1,-5,5h-73a5,5,0,0,1,-5,-5v-12a5,5,0,0,1,5,-5z"></path><g id="node_text9" fill="black"><text id="kity_text_71" text-rendering="inherit" font-size="12" dy=".8em" y="181.5" x="1075.5">File system</text></g></g><g id="minder_node9"><g id="node_expander7" style="cursor: pointer;"><path id="kity_path_116" fill="white" stroke="gray" d="M1188.5,187.5A6,6,0,1,1,1176.5,187.5A6,6,0,1,1,1188.5,187.5"></path><path id="kity_path_117" fill="none" stroke="gray" d="M1178,187.5L1187,187.5"></path></g><path id="node_outline8" fill="none" stroke="none" d="M1193.5,176.5h93a5,5,0,0,1,5,5v12a5,5,0,0,1,-5,5h-93a5,5,0,0,1,-5,-5v-12a5,5,0,0,1,5,-5z"></path><g id="node_text8" fill="black"><text id="kity_text_69" text-rendering="inherit" font-size="12" dy=".8em" y="181.5" x="1198.5">Binary loading</text></g></g><g id="minder_node10"><g id="node_expander4" display="none" style="cursor: pointer;"><path id="kity_path_107" fill="white" stroke="gray" d="M1331.5,135.5A6,6,0,1,1,1319.5,135.5A6,6,0,1,1,1331.5,135.5"></path><path id="kity_path_108" fill="none" stroke="gray"></path></g><path id="node_outline5" fill="none" stroke="none" d="M1336.5,124.5h97a5,5,0,0,1,5,5v12a5,5,0,0,1,-5,5h-97a5,5,0,0,1,-5,-5v-12a5,5,0,0,1,5,-5z"></path><g id="node_text5" fill="black"><text id="kity_text_63" text-rendering="inherit" font-size="12" dy=".8em" y="129.5" x="1341.5">Graphics driver</text></g></g><g id="minder_node11"><g id="node_expander5" display="none" style="cursor: pointer;"><path id="kity_path_110" fill="white" stroke="gray" d="M1331.5,187.5A6,6,0,1,1,1319.5,187.5A6,6,0,1,1,1331.5,187.5"></path><path id="kity_path_111" fill="none" stroke="gray"></path></g><path id="node_outline6" fill="none" stroke="none" d="M1336.5,176.5h118a5,5,0,0,1,5,5v12a5,5,0,0,1,-5,5h-118a5,5,0,0,1,-5,-5v-12a5,5,0,0,1,5,-5z"></path><g id="node_text6" fill="black"><text id="kity_text_65" text-rendering="inherit" font-size="12" dy=".8em" y="181.5" x="1341.5">Block device driver</text></g></g><g id="minder_node12"><g id="node_expander6" display="none" style="cursor: pointer;"><path id="kity_path_113" fill="white" stroke="gray" d="M1331.5,239.5A6,6,0,1,1,1319.5,239.5A6,6,0,1,1,1331.5,239.5"></path><path id="kity_path_114" fill="none" stroke="gray"></path></g><path id="node_outline7" fill="none" stroke="none" d="M1336.5,228.5h88a5,5,0,0,1,5,5v12a5,5,0,0,1,-5,5h-88a5,5,0,0,1,-5,-5v-12a5,5,0,0,1,5,-5z"></path><g id="node_text7" fill="black"><text id="kity_text_67" text-rendering="inherit" font-size="12" dy=".8em" y="233.5" x="1341.5">Display driver</text></g></g><g id="minder_node13"><g id="node_expander11" display="none" style="cursor: pointer;"><path id="kity_path_128" fill="white" stroke="gray" d="M744.5,291.5A6,6,0,1,1,732.5,291.5A6,6,0,1,1,744.5,291.5"></path><path id="kity_path_129" fill="none" stroke="gray"></path></g><path id="node_outline12" fill="none" stroke="none" d="M749.5,280.5h163a5,5,0,0,1,5,5v12a5,5,0,0,1,-5,5h-163a5,5,0,0,1,-5,-5v-12a5,5,0,0,1,5,-5z"></path><g id="node_text12" fill="black"><text id="kity_text_77" text-rendering="inherit" font-size="12" dy=".8em" y="285.5" x="754.5">IDT and GDT management</text></g></g><g id="minder_node14"><g id="node_expander13" display="none" style="cursor: pointer;"><path id="kity_path_134" fill="white" stroke="gray" d="M217.5,187A6,6,0,1,1,205.5,187A6,6,0,1,1,217.5,187"></path><path id="kity_path_135" fill="none" stroke="gray"></path></g><path id="node_outline14" fill="rgb(238, 243, 246)" stroke="rgb(115, 161, 191)" d="M23.5,163.5h178a3,3,0,0,1,3,3v41a3,3,0,0,1,-3,3h-178a3,3,0,0,1,-3,-3v-41a3,3,0,0,1,3,-3z" stroke-width="1"></path><g id="node_text14" fill="black"><text id="kity_text_82" text-rendering="inherit" font-size="14" dy=".8em" y="169" x="40.5">UltraPost</text><text id="kity_text_83" text-rendering="inherit" font-size="14" dy=".8em" y="190" x="40.5">front-end technology</text></g></g></g></g></svg>