<svg id="kity_svg_6" xmlns="http://www.w3.org/2000/svg" xmlns:xlink="http://www.w3.org/1999/xlink" version="1.1" width="1297" height="325" style="font-family: Arial, &quot;Microsoft Yahei&quot;,  &quot;Heiti SC&quot;; background: #fbfbfb" viewBox="641 242 1297 325"><defs id="kity_defs_7"><linearGradient id="kity_linearGradient_17" x1="0" y1="0" x2="0" y2="1"><stop id="kity_stop_18" offset="0" stop-color="rgb(255, 255, 255)"></stop><stop id="kity_stop_19" offset="1" stop-color="rgb(204, 204, 204)"></stop></linearGradient><marker id="kity_marker_2" orient="auto" refX="6" refY="0" viewBox="-7 -7 14 14" markerWidth="7" markerHeight="7" markerUnits="userSpaceOnUse"><path id="kity_path_3" fill="rgb(115, 161, 191)" stroke="none" d="M6,0A6,6,0,1,1,-6,0A6,6,0,1,1,6,0"></path></marker></defs><g id="kity_g_8" transform="translate(0.5, 0.5)"><g id="minder1" text-rendering="optimize-speed" transform="translate( 959 429 )"><g id="minder_connect_group1"><path id="kity_path_31" fill="none" stroke="rgb(115, 161, 191)" stroke-width="1" marker-end="url(#kity_marker_2)" d="M40.5 0A182.5,0,0,0,1,223 0" transform="translate( 0 0 )"></path><path id="kity_path_33" fill="none" stroke="rgb(115, 161, 191)" stroke-width="1" d="M383 0C398,0,398,-90,413 -90L491 -90" transform="translate( 0 0 )"></path><path id="kity_path_35" fill="none" stroke="rgb(115, 161, 191)" stroke-width="1" d="M491 -90C506,-90,506,-142,521 -142L611 -142" transform="translate( 0 0 )"></path><path id="kity_path_37" fill="none" stroke="rgb(115, 161, 191)" stroke-width="1" d="M611 -142C626,-142,626,-142,641 -142L743 -142" transform="translate( 0 0 )"></path><path id="kity_path_39" fill="none" stroke="rgb(115, 161, 191)" stroke-width="1" d="M491 -90C506,-90,506,-38,521 -38L611 -38" transform="translate( 0 0 )"></path><path id="kity_path_41" fill="none" stroke="rgb(115, 161, 191)" stroke-width="1" d="M611 -38C626,-38,626,-90,641 -90L724 -90" transform="translate( 0 0 )"></path><path id="kity_path_43" fill="none" stroke="rgb(115, 161, 191)" stroke-width="1" d="M611 -38C626,-38,626,14,641 14L719 14" transform="translate( 0 0 )"></path><path id="kity_path_45" fill="none" stroke="rgb(115, 161, 191)" stroke-width="1" d="M719 14C734,14,734,14,749 14L839 14" transform="translate( 0 0 )"></path><path id="kity_path_47" fill="none" stroke="rgb(115, 161, 191)" stroke-width="1" d="M839 14C854,14,854,-38,869 -38L947 -38" transform="translate( 0 0 )"></path><path id="kity_path_49" fill="none" stroke="rgb(115, 161, 191)" stroke-width="1" d="M839 14C854,14,854,14,869 14L959 14" transform="translate( 0 0 )"></path><path id="kity_path_51" fill="none" stroke="rgb(115, 161, 191)" stroke-width="1" d="M839 14C854,14,854,66,869 66L947 66" transform="translate( 0 0 )"></path><path id="kity_path_53" fill="none" stroke="rgb(115, 161, 191)" stroke-width="1" d="M383 0C398,0,398,118,413 118L524 118" transform="translate( 0 0 )"></path><path id="kity_path_55" fill="none" stroke="rgb(115, 161, 191)" stroke-width="1" marker-end="url(#kity_marker_2)" d="M40.5 0A182.5,0,0,0,1,-142 0" transform="translate( 0 0 )"></path></g><g id="minder_node1" transform="matrix( 1 0 0 1 0 0 )"><path id="node_outline1" fill="rgb(115, 161, 191)" stroke="rgb(57, 80, 96)" d="M-19,-20h119a5,5,0,0,1,5,5v30a5,5,0,0,1,-5,5h-119a5,5,0,0,1,-5,-5v-30a5,5,0,0,1,5,-5z" stroke-width="3"></path><g id="node_text1" transform="translate( 0 0 )" fill="white"><text id="kity_text_22" text-rendering="inherit" dominant-baseline="text-before-edge" font-size="16" dy="0" y="-8">Iceberg OS</text></g></g><g id="kity_g_12"><path id="kity_path_13" fill="none" stroke="none" d="M0,0h0v0h0z"></path></g><g id="kity_g_14"><path id="kity_path_15" fill="none" stroke="none" d="M0,0h0v0h0z"></path><path id="kity_path_16" fill="none" stroke="none"></path></g><g id="minder_node2" transform="matrix( 1 0 0 1 245 0 )"><g id="node_expander12" transform="translate( -27 0 )" style="cursor: pointer;"><path id="kity_path_129" fill="white" stroke="gray" d="M6,0A6,6,0,1,1,-6,0A6,6,0,1,1,6,0"></path><path id="kity_path_130" fill="none" stroke="gray" d="M-4.5,0L4.5,0"></path></g><path id="node_outline13" fill="rgb(238, 243, 246)" stroke="rgb(115, 161, 191)" d="M-17,-13h152a3,3,0,0,1,3,3v20a3,3,0,0,1,-3,3h-152a3,3,0,0,1,-3,-3v-20a3,3,0,0,1,3,-3z" stroke-width="1"></path><g id="node_text13" transform="translate( 0 0 )" fill="black"><text id="kity_text_79" text-rendering="inherit" dominant-baseline="text-before-edge" font-size="14" dy="0" y="-7">Frogimine混合内核</text></g></g><g id="minder_node3" transform="matrix( 1 0 0 1 433 -104 )"><g id="node_expander10" transform="translate( -16 0 )" style="cursor: pointer;"><path id="kity_path_123" fill="white" stroke="gray" d="M6,0A6,6,0,1,1,-6,0A6,6,0,1,1,6,0"></path><path id="kity_path_124" fill="none" stroke="gray" d="M-4.5,0L4.5,0"></path></g><path id="node_outline11" fill="transparent" stroke="none" d="M-5,-11h58a5,5,0,0,1,5,5v12a5,5,0,0,1,-5,5h-58a5,5,0,0,1,-5,-5v-12a5,5,0,0,1,5,-5z"></path><g id="node_text11" transform="translate( 0 0 )" fill="black"><text id="kity_text_75" text-rendering="inherit" dominant-baseline="text-before-edge" font-size="12" dy="0" y="-6">内存管理</text></g></g><g id="minder_node4" transform="matrix( 1 0 0 1 541 -156 )"><g id="node_expander2" transform="translate( -16 0 )" style="cursor: pointer;"><path id="kity_path_99" fill="white" stroke="gray" d="M6,0A6,6,0,1,1,-6,0A6,6,0,1,1,6,0"></path><path id="kity_path_100" fill="none" stroke="gray" d="M-4.5,0L4.5,0"></path></g><path id="node_outline3" fill="transparent" stroke="none" d="M-5,-11h70a5,5,0,0,1,5,5v12a5,5,0,0,1,-5,5h-70a5,5,0,0,1,-5,-5v-12a5,5,0,0,1,5,-5z"></path><g id="node_text3" transform="translate( 0 0 )" fill="black"><text id="kity_text_59" text-rendering="inherit" dominant-baseline="text-before-edge" font-size="12" dy="0" y="-6">进程和线程</text></g></g><g id="minder_node5" transform="matrix( 1 0 0 1 661 -156 )"><g id="node_expander1" display="none" transform="translate( -16 0 )" style="cursor: pointer;"><path id="kity_path_96" fill="white" stroke="gray" d="M6,0A6,6,0,1,1,-6,0A6,6,0,1,1,6,0"></path><path id="kity_path_97" fill="none" stroke="gray"></path></g><path id="node_outline2" fill="transparent" stroke="none" d="M-5,-11h82a5,5,0,0,1,5,5v12a5,5,0,0,1,-5,5h-82a5,5,0,0,1,-5,-5v-12a5,5,0,0,1,5,-5z"></path><g id="node_text2" transform="translate( 0 0 )" fill="black"><text id="kity_text_57" text-rendering="inherit" dominant-baseline="text-before-edge" font-size="12" dy="0" y="-6">内核空闲进程</text></g></g><g id="minder_node6" transform="matrix( 1 0 0 1 541 -52 )"><g id="node_expander9" transform="translate( -16 0 )" style="cursor: pointer;"><path id="kity_path_120" fill="white" stroke="gray" d="M6,0A6,6,0,1,1,-6,0A6,6,0,1,1,6,0"></path><path id="kity_path_121" fill="none" stroke="gray" d="M-4.5,0L4.5,0"></path></g><path id="node_outline10" fill="transparent" stroke="none" d="M-5,-11h70a5,5,0,0,1,5,5v12a5,5,0,0,1,-5,5h-70a5,5,0,0,1,-5,-5v-12a5,5,0,0,1,5,-5z"></path><g id="node_text10" transform="translate( 0 0 )" fill="black"><text id="kity_text_73" text-rendering="inherit" dominant-baseline="text-before-edge" font-size="12" dy="0" y="-6">驱动服务器</text></g></g><g id="minder_node7" transform="matrix( 1 0 0 1 661 -104 )"><g id="node_expander3" display="none" transform="translate( -16 0 )" style="cursor: pointer;"><path id="kity_path_102" fill="white" stroke="gray" d="M6,0A6,6,0,1,1,-6,0A6,6,0,1,1,6,0"></path><path id="kity_path_103" fill="none" stroke="gray"></path></g><path id="node_outline4" fill="transparent" stroke="none" d="M-5,-11h63a5,5,0,0,1,5,5v12a5,5,0,0,1,-5,5h-63a5,5,0,0,1,-5,-5v-12a5,5,0,0,1,5,-5z"></path><g id="node_text4" transform="translate( 0 0 )" fill="black"><text id="kity_text_61" text-rendering="inherit" dominant-baseline="text-before-edge" font-size="12" dy="0" y="-6">Posix服务</text></g></g><g id="minder_node8" transform="matrix( 1 0 0 1 661 0 )"><g id="node_expander8" transform="translate( -16 0 )" style="cursor: pointer;"><path id="kity_path_117" fill="white" stroke="gray" d="M6,0A6,6,0,1,1,-6,0A6,6,0,1,1,6,0"></path><path id="kity_path_118" fill="none" stroke="gray" d="M-4.5,0L4.5,0"></path></g><path id="node_outline9" fill="transparent" stroke="none" d="M-5,-11h58a5,5,0,0,1,5,5v12a5,5,0,0,1,-5,5h-58a5,5,0,0,1,-5,-5v-12a5,5,0,0,1,5,-5z"></path><g id="node_text9" transform="translate( 0 0 )" fill="black"><text id="kity_text_71" text-rendering="inherit" dominant-baseline="text-before-edge" font-size="12" dy="0" y="-6">文件系统</text></g></g><g id="minder_node9" transform="matrix( 1 0 0 1 769 0 )"><g id="node_expander7" transform="translate( -16 0 )" style="cursor: pointer;"><path id="kity_path_114" fill="white" stroke="gray" d="M6,0A6,6,0,1,1,-6,0A6,6,0,1,1,6,0"></path><path id="kity_path_115" fill="none" stroke="gray" d="M-4.5,0L4.5,0"></path></g><path id="node_outline8" fill="transparent" stroke="none" d="M-5,-11h70a5,5,0,0,1,5,5v12a5,5,0,0,1,-5,5h-70a5,5,0,0,1,-5,-5v-12a5,5,0,0,1,5,-5z"></path><g id="node_text8" transform="translate( 0 0 )" fill="black"><text id="kity_text_69" text-rendering="inherit" dominant-baseline="text-before-edge" font-size="12" dy="0" y="-6">二进制载入</text></g></g><g id="minder_node10" transform="matrix( 1 0 0 1 889 -52 )"><g id="node_expander4" display="none" transform="translate( -16 0 )" style="cursor: pointer;"><path id="kity_path_105" fill="white" stroke="gray" d="M6,0A6,6,0,1,1,-6,0A6,6,0,1,1,6,0"></path><path id="kity_path_106" fill="none" stroke="gray"></path></g><path id="node_outline5" fill="transparent" stroke="none" d="M-5,-11h58a5,5,0,0,1,5,5v12a5,5,0,0,1,-5,5h-58a5,5,0,0,1,-5,-5v-12a5,5,0,0,1,5,-5z"></path><g id="node_text5" transform="translate( 0 0 )" fill="black"><text id="kity_text_63" text-rendering="inherit" dominant-baseline="text-before-edge" font-size="12" dy="0" y="-6">图形驱动</text></g></g><g id="minder_node11" transform="matrix( 1 0 0 1 889 0 )"><g id="node_expander5" display="none" transform="translate( -16 0 )" style="cursor: pointer;"><path id="kity_path_108" fill="white" stroke="gray" d="M6,0A6,6,0,1,1,-6,0A6,6,0,1,1,6,0"></path><path id="kity_path_109" fill="none" stroke="gray"></path></g><path id="node_outline6" fill="transparent" stroke="none" d="M-5,-11h70a5,5,0,0,1,5,5v12a5,5,0,0,1,-5,5h-70a5,5,0,0,1,-5,-5v-12a5,5,0,0,1,5,-5z"></path><g id="node_text6" transform="translate( 0 0 )" fill="black"><text id="kity_text_65" text-rendering="inherit" dominant-baseline="text-before-edge" font-size="12" dy="0" y="-6">块设备驱动</text></g></g><g id="minder_node12" transform="matrix( 1 0 0 1 889 52 )"><g id="node_expander6" display="none" transform="translate( -16 0 )" style="cursor: pointer;"><path id="kity_path_111" fill="white" stroke="gray" d="M6,0A6,6,0,1,1,-6,0A6,6,0,1,1,6,0"></path><path id="kity_path_112" fill="none" stroke="gray"></path></g><path id="node_outline7" fill="transparent" stroke="none" d="M-5,-11h58a5,5,0,0,1,5,5v12a5,5,0,0,1,-5,5h-58a5,5,0,0,1,-5,-5v-12a5,5,0,0,1,5,-5z"></path><g id="node_text7" transform="translate( 0 0 )" fill="black"><text id="kity_text_67" text-rendering="inherit" dominant-baseline="text-before-edge" font-size="12" dy="0" y="-6">显示驱动</text></g></g><g id="minder_node13" transform="matrix( 1 0 0 1 433 104 )"><g id="node_expander11" display="none" transform="translate( -16 0 )" style="cursor: pointer;"><path id="kity_path_126" fill="white" stroke="gray" d="M6,0A6,6,0,1,1,-6,0A6,6,0,1,1,6,0"></path><path id="kity_path_127" fill="none" stroke="gray"></path></g><path id="node_outline12" fill="transparent" stroke="none" d="M-5,-11h91a5,5,0,0,1,5,5v12a5,5,0,0,1,-5,5h-91a5,5,0,0,1,-5,-5v-12a5,5,0,0,1,5,-5z"></path><g id="node_text12" transform="translate( 0 0 )" fill="black"><text id="kity_text_77" text-rendering="inherit" dominant-baseline="text-before-edge" font-size="12" dy="0" y="-6">IDT与GDT管理</text></g></g><g id="minder_node14" transform="matrix( 1 0 0 1 -278 0 )"><g id="node_expander13" display="none" transform="translate( 141 0 )" style="cursor: pointer;"><path id="kity_path_132" fill="white" stroke="gray" d="M6,0A6,6,0,1,1,-6,0A6,6,0,1,1,6,0"></path><path id="kity_path_133" fill="none" stroke="gray"></path></g><path id="node_outline14" fill="rgb(238, 243, 246)" stroke="rgb(115, 161, 191)" d="M-17,-13h148a3,3,0,0,1,3,3v20a3,3,0,0,1,-3,3h-148a3,3,0,0,1,-3,-3v-20a3,3,0,0,1,3,-3z" stroke-width="1"></path><g id="node_text14" transform="translate( 0 0 )" fill="black"><text id="kity_text_81" text-rendering="inherit" dominant-baseline="text-before-edge" font-size="14" dy="0" y="-7">UltraPost前端技术</text></g></g></g></g></svg>