<svg id="kity_svg_6" xmlns="http://www.w3.org/2000/svg" xmlns:xlink="http://www.w3.org/1999/xlink" version="1.1" width="1276" height="325" style="display: inline; background: rgb(251, 251, 251);" viewBox="0 0 1276 325"><defs id="kity_defs_7"><linearGradient id="kity_linearGradient_17" x1="0" y1="0" x2="0" y2="1"><stop id="kity_stop_18" offset="0" stop-color="rgb(255, 255, 255)"></stop><stop id="kity_stop_19" offset="1" stop-color="rgb(204, 204, 204)"></stop></linearGradient><marker id="kity_marker_2" orient="auto" refX="6" refY="0" viewBox="-7 -7 14 14" markerWidth="7" markerHeight="7" markerUnits="userSpaceOnUse"><path id="kity_path_3" fill="rgb(115, 161, 191)" stroke="none" d="M6,0A6,6,0,1,1,-6,0A6,6,0,1,1,6,0"></path></marker></defs><g id="kity_g_8"><g id="minder1" text-rendering="optimize-speed"><g id="minder_connect_group1"><path id="kity_path_31" fill="none" stroke="rgb(115, 161, 191)" stroke-width="1" d="M364.5,187.5A184,0,0,0,1,548.5,187.5"></path><path id="kity_path_33" fill="none" stroke="rgb(115, 161, 191)" stroke-width="1" d="M680.5,187.5C695.5,187.5,695.5,97.5,710.5,97.5L788.5,97.5"></path><path id="kity_path_35" fill="none" stroke="rgb(115, 161, 191)" stroke-width="1" d="M788.5,97.5C803.5,97.5,803.5,45.5,818.5,45.5L908.5,45.5"></path><path id="kity_path_37" fill="none" stroke="rgb(115, 161, 191)" stroke-width="1" d="M908.5,45.5C923.5,45.5,923.5,45.5,938.5,45.5L1040.5,45.5"></path><path id="kity_path_39" fill="none" stroke="rgb(115, 161, 191)" stroke-width="1" d="M788.5,97.5C803.5,97.5,803.5,149.5,818.5,149.5L908.5,149.5"></path><path id="kity_path_41" fill="none" stroke="rgb(115, 161, 191)" stroke-width="1" d="M908.5,149.5C923.5,149.5,923.5,97.5,938.5,97.5L1027.5,97.5"></path><path id="kity_path_43" fill="none" stroke="rgb(115, 161, 191)" stroke-width="1" d="M364.5,187.5A184,0,0,0,1,180.5,187.5"></path><path id="kity_path_87" fill="none" stroke="rgb(115, 161, 191)" stroke-width="1" d="M908.5,149.5C923.5,149.5,923.5,201.5,938.5,201.5L1016.5,201.5"></path><path id="kity_path_95" fill="none" stroke="rgb(115, 161, 191)" stroke-width="1" d="M1016.5,201.5C1031.5,201.5,1031.5,201.5,1046.5,201.5L1136.5,201.5"></path><path id="kity_path_103" fill="none" stroke="rgb(115, 161, 191)" stroke-width="1" d="M1136.5,201.5C1151.5,201.5,1151.5,149.5,1166.5,149.5L1244.5,149.5"></path><path id="kity_path_111" fill="none" stroke="rgb(115, 161, 191)" stroke-width="1" d="M1136.5,201.5C1151.5,201.5,1151.5,201.5,1166.5,201.5L1256.5,201.5"></path><path id="kity_path_119" fill="none" stroke="rgb(115, 161, 191)" stroke-width="1" d="M1136.5,201.5C1151.5,201.5,1151.5,253.5,1166.5,253.5L1244.5,253.5"></path><path id="kity_path_127" fill="none" stroke="rgb(115, 161, 191)" stroke-width="1" d="M680.5,187.5C695.5,187.5,695.5,305.5,710.5,305.5L820.5,305.5"></path></g><g id="minder_node1"><path id="kity_path_140" fill="rgba(0, 0, 0, .25)" stroke="none" d="M338.5,145.5h103a47,47,0,0,1,47,47v0a47,47,0,0,1,-47,47h-103a47,47,0,0,1,-47,-47v0a47,47,0,0,1,47,-47z" display="none"></path><path id="node_outline1" fill="rgb(115, 161, 191)" stroke="rgb(115, 161, 191)" d="M303.5,167.5h122a5,5,0,0,1,5,5v30a5,5,0,0,1,-5,5h-122a5,5,0,0,1,-5,-5v-30a5,5,0,0,1,5,-5z" stroke-width="3"></path><g id="node_text1" fill="white"><text id="kity_text_22" text-rendering="inherit" font-size="16" dy=".8em" y="177.09999990463257" x="322.5">Iceberg OS</text></g><g id="kity_g_134" display="none"><g id="kity_g_135"><path id="kity_path_136" fill="rgb(255, 244, 179)" stroke="none" d="M416.5,174.5h44v24h-44z"></path><text id="kity_text_137" text-rendering="geometricPrecision" font-size="12" dy="5" x="424.5" fill="rgb(77, 65, 0)" y="186.5">1234</text></g></g></g><g id="kity_g_12"><path id="kity_path_13" fill="none" stroke="none" d="M322.5,187.5h0v0h0z"></path></g><g id="kity_g_14"><path id="kity_path_15" fill="none" stroke="none" d="M322.5,187.5h0v0h0z"></path><path id="kity_path_16" fill="none" stroke="none"></path></g><g id="minder_node2"><path id="kity_path_138" fill="rgba(0, 0, 0, .25)" stroke="none" d="M559.5,178.5h133a5,5,0,0,1,5,5v18a5,5,0,0,1,-5,5h-133a5,5,0,0,1,-5,-5v-18a5,5,0,0,1,5,-5z" display="none"></path><g id="node_expander6" style="cursor: pointer;"><path id="kity_path_81" fill="white" stroke="gray" d="M549.5,187.5A6,6,0,1,1,537.5,187.5A6,6,0,1,1,549.5,187.5"></path><path id="kity_path_82" fill="none" stroke="gray" d="M539,187.5L548,187.5"></path></g><path id="node_outline7" fill="rgb(238, 243, 246)" stroke="rgb(115, 161, 191)" d="M553.5,174.5h124a3,3,0,0,1,3,3v20a3,3,0,0,1,-3,3h-124a3,3,0,0,1,-3,-3v-20a3,3,0,0,1,3,-3z" stroke-width="1"></path><g id="node_text7" fill="black"><text id="kity_text_55" text-rendering="inherit" font-size="14" dy=".8em" y="178.40000009536743" x="570.5">Cryst混合内核</text></g></g><g id="minder_node3"><path id="kity_path_150" fill="rgba(0, 0, 0, .25)" stroke="none" d="M760.5,56h0a33,33,0,0,1,33,33v0a33,33,0,0,1,-33,33h0a33,33,0,0,1,-33,-33v0a33,33,0,0,1,33,-33z" display="none"></path><g id="node_expander5" style="cursor: pointer;"><path id="kity_path_78" fill="white" stroke="gray" d="M720.5,83.5A6,6,0,1,1,708.5,83.5A6,6,0,1,1,720.5,83.5"></path><path id="kity_path_79" fill="none" stroke="gray" d="M710,83.5L719,83.5"></path></g><path id="node_outline6" fill="none" stroke="none" d="M725.5,72.5h58a5,5,0,0,1,5,5v12a5,5,0,0,1,-5,5h-58a5,5,0,0,1,-5,-5v-12a5,5,0,0,1,5,-5z" stroke-width="3"></path><g id="node_text6" fill="black"><text id="kity_text_53" text-rendering="inherit" font-size="12" dy=".8em" y="75.70000004768372" x="730.5">内存管理</text></g></g><g id="minder_node4"><path id="kity_path_142" fill="rgba(0, 0, 0, .25)" stroke="none" d="M875,-2h0a39,39,0,0,1,39,39v0a39,39,0,0,1,-39,39h0a39,39,0,0,1,-39,-39v0a39,39,0,0,1,39,-39z" display="none"></path><g id="node_expander2" style="cursor: pointer;"><path id="kity_path_69" fill="white" stroke="gray" d="M828.5,31.5A6,6,0,1,1,816.5,31.5A6,6,0,1,1,828.5,31.5"></path><path id="kity_path_70" fill="none" stroke="gray" d="M818,31.5L827,31.5"></path></g><path id="node_outline3" fill="none" stroke="none" d="M833.5,20.5h70a5,5,0,0,1,5,5v12a5,5,0,0,1,-5,5h-70a5,5,0,0,1,-5,-5v-12a5,5,0,0,1,5,-5z" stroke-width="3"></path><g id="node_text3" fill="black"><text id="kity_text_47" text-rendering="inherit" font-size="12" dy=".8em" y="23.700000047683716" x="838.5">进程和线程</text></g></g><g id="minder_node5"><path id="kity_path_141" fill="rgba(0, 0, 0, .25)" stroke="none" d="M1001.5,-8h0a45,45,0,0,1,45,45v0a45,45,0,0,1,-45,45h0a45,45,0,0,1,-45,-45v0a45,45,0,0,1,45,-45z" display="none"></path><g id="node_expander1" style="cursor: pointer;" display="none"><path id="kity_path_66" fill="white" stroke="gray" d="M948.5,31.5A6,6,0,1,1,936.5,31.5A6,6,0,1,1,948.5,31.5"></path><path id="kity_path_67" fill="none" stroke="gray"></path></g><path id="node_outline2" fill="none" stroke="none" d="M953.5,20.5h82a5,5,0,0,1,5,5v12a5,5,0,0,1,-5,5h-82a5,5,0,0,1,-5,-5v-12a5,5,0,0,1,5,-5z" stroke-width="3"></path><g id="node_text2" fill="black"><text id="kity_text_45" text-rendering="inherit" font-size="12" dy=".8em" y="23.700000047683716" x="958.5">内核空闲进程</text></g></g><g id="minder_node6"><path id="kity_path_149" fill="rgba(0, 0, 0, .25)" stroke="none" d="M875,102h0a39,39,0,0,1,39,39v0a39,39,0,0,1,-39,39h0a39,39,0,0,1,-39,-39v0a39,39,0,0,1,39,-39z" display="none"></path><g id="node_expander4" style="cursor: pointer;"><path id="kity_path_75" fill="white" stroke="gray" d="M828.5,135.5A6,6,0,1,1,816.5,135.5A6,6,0,1,1,828.5,135.5"></path><path id="kity_path_76" fill="none" stroke="gray" d="M818,135.5L827,135.5"></path></g><path id="node_outline5" fill="none" stroke="none" d="M833.5,124.5h70a5,5,0,0,1,5,5v12a5,5,0,0,1,-5,5h-70a5,5,0,0,1,-5,-5v-12a5,5,0,0,1,5,-5z" stroke-width="3"></path><g id="node_text5" fill="black"><text id="kity_text_51" text-rendering="inherit" font-size="12" dy=".8em" y="127.70000004768372" x="838.5">驱动服务器</text></g></g><g id="minder_node7"><path id="kity_path_143" fill="rgba(0, 0, 0, .25)" stroke="none" d="M994.5,50h0a39,39,0,0,1,39,39v0a39,39,0,0,1,-39,39h0a39,39,0,0,1,-39,-39v0a39,39,0,0,1,39,-39z" display="none"></path><g id="node_expander3" style="cursor: pointer;" display="none"><path id="kity_path_72" fill="white" stroke="gray" d="M948.5,83.5A6,6,0,1,1,936.5,83.5A6,6,0,1,1,948.5,83.5"></path><path id="kity_path_73" fill="none" stroke="gray"></path></g><path id="node_outline4" fill="none" stroke="none" d="M953.5,72.5h69a5,5,0,0,1,5,5v12a5,5,0,0,1,-5,5h-69a5,5,0,0,1,-5,-5v-12a5,5,0,0,1,5,-5z" stroke-width="3"></path><g id="node_text4" fill="black"><text id="kity_text_49" text-rendering="inherit" font-size="12" dy=".8em" y="75.70000004768372" x="958.5">POSIX服务</text></g></g><g id="minder_node8"><path id="kity_path_139" fill="rgba(0, 0, 0, .25)" stroke="none" d="M29.5,178.5h164a5,5,0,0,1,5,5v18a5,5,0,0,1,-5,5h-164a5,5,0,0,1,-5,-5v-18a5,5,0,0,1,5,-5z" display="none"></path><g id="node_expander7" style="cursor: pointer;" display="none"><path id="kity_path_84" fill="white" stroke="gray" d="M191.5,187.5A6,6,0,1,1,179.5,187.5A6,6,0,1,1,191.5,187.5"></path><path id="kity_path_85" fill="none" stroke="gray"></path></g><path id="node_outline8" fill="rgb(238, 243, 246)" stroke="rgb(115, 161, 191)" d="M23.5,174.5h152a3,3,0,0,1,3,3v20a3,3,0,0,1,-3,3h-152a3,3,0,0,1,-3,-3v-20a3,3,0,0,1,3,-3z" stroke-width="1"></path><g id="node_text8" fill="black"><text id="kity_text_57" text-rendering="inherit" font-size="14" dy=".8em" y="178.40000009536743" x="40.5">UltraPost前端技术</text></g></g><g id="minder_node9"><path id="kity_path_148" fill="rgba(0, 0, 0, .25)" stroke="none" d="M988.5,160h0a33,33,0,0,1,33,33v0a33,33,0,0,1,-33,33h0a33,33,0,0,1,-33,-33v0a33,33,0,0,1,33,-33z" display="none"></path><g id="node_expander8" style="cursor: pointer;"><path id="kity_path_92" fill="white" stroke="gray" d="M948.5,187.5A6,6,0,1,1,936.5,187.5A6,6,0,1,1,948.5,187.5"></path><path id="kity_path_93" fill="none" stroke="gray" d="M938,187.5L947,187.5"></path></g><path id="node_outline9" fill="none" stroke="none" d="M953.5,176.5h58a5,5,0,0,1,5,5v12a5,5,0,0,1,-5,5h-58a5,5,0,0,1,-5,-5v-12a5,5,0,0,1,5,-5z" stroke-width="3"></path><g id="node_text9" fill="black"><text id="kity_text_89" text-rendering="inherit" font-size="12" dy=".8em" y="179.70000004768372" x="958.5">文件系统</text></g></g><g id="minder_node10"><path id="kity_path_147" fill="rgba(0, 0, 0, .25)" stroke="none" d="M1103,154h0a39,39,0,0,1,39,39v0a39,39,0,0,1,-39,39h0a39,39,0,0,1,-39,-39v0a39,39,0,0,1,39,-39z" display="none"></path><g id="node_expander9" style="cursor: pointer;"><path id="kity_path_100" fill="white" stroke="gray" d="M1056.5,187.5A6,6,0,1,1,1044.5,187.5A6,6,0,1,1,1056.5,187.5"></path><path id="kity_path_101" fill="none" stroke="gray" d="M1046,187.5L1055,187.5"></path></g><path id="node_outline10" fill="none" stroke="none" d="M1061.5,176.5h70a5,5,0,0,1,5,5v12a5,5,0,0,1,-5,5h-70a5,5,0,0,1,-5,-5v-12a5,5,0,0,1,5,-5z" stroke-width="3"></path><g id="node_text10" fill="black"><text id="kity_text_97" text-rendering="inherit" font-size="12" dy=".8em" y="179.70000004768372" x="1066.5">二进制载入</text></g></g><g id="minder_node11"><path id="kity_path_144" fill="rgba(0, 0, 0, .25)" stroke="none" d="M1216.5,108h0a33,33,0,0,1,33,33v0a33,33,0,0,1,-33,33h0a33,33,0,0,1,-33,-33v0a33,33,0,0,1,33,-33z" display="none"></path><g id="node_expander10" style="cursor: pointer;" display="none"><path id="kity_path_108" fill="white" stroke="gray" d="M1176.5,135.5A6,6,0,1,1,1164.5,135.5A6,6,0,1,1,1176.5,135.5"></path><path id="kity_path_109" fill="none" stroke="gray"></path></g><path id="node_outline11" fill="none" stroke="none" d="M1181.5,124.5h58a5,5,0,0,1,5,5v12a5,5,0,0,1,-5,5h-58a5,5,0,0,1,-5,-5v-12a5,5,0,0,1,5,-5z" stroke-width="3"></path><g id="node_text11" fill="black"><text id="kity_text_105" text-rendering="inherit" font-size="12" dy=".8em" y="127.70000004768372" x="1186.5">图形驱动</text></g></g><g id="minder_node12"><path id="kity_path_145" fill="rgba(0, 0, 0, .25)" stroke="none" d="M1223,154h0a39,39,0,0,1,39,39v0a39,39,0,0,1,-39,39h0a39,39,0,0,1,-39,-39v0a39,39,0,0,1,39,-39z" display="none"></path><g id="node_expander11" style="cursor: pointer;" display="none"><path id="kity_path_116" fill="white" stroke="gray" d="M1176.5,187.5A6,6,0,1,1,1164.5,187.5A6,6,0,1,1,1176.5,187.5"></path><path id="kity_path_117" fill="none" stroke="gray"></path></g><path id="node_outline12" fill="none" stroke="none" d="M1181.5,176.5h70a5,5,0,0,1,5,5v12a5,5,0,0,1,-5,5h-70a5,5,0,0,1,-5,-5v-12a5,5,0,0,1,5,-5z" stroke-width="3"></path><g id="node_text12" fill="black"><text id="kity_text_113" text-rendering="inherit" font-size="12" dy=".8em" y="179.70000004768372" x="1186.5">块设备驱动</text></g></g><g id="minder_node13"><path id="kity_path_146" fill="rgba(0, 0, 0, .25)" stroke="none" d="M1216.5,212h0a33,33,0,0,1,33,33v0a33,33,0,0,1,-33,33h0a33,33,0,0,1,-33,-33v0a33,33,0,0,1,33,-33z" display="none"></path><g id="node_expander12" style="cursor: pointer;" display="none"><path id="kity_path_124" fill="white" stroke="gray" d="M1176.5,239.5A6,6,0,1,1,1164.5,239.5A6,6,0,1,1,1176.5,239.5"></path><path id="kity_path_125" fill="none" stroke="gray"></path></g><path id="node_outline13" fill="none" stroke="none" d="M1181.5,228.5h58a5,5,0,0,1,5,5v12a5,5,0,0,1,-5,5h-58a5,5,0,0,1,-5,-5v-12a5,5,0,0,1,5,-5z" stroke-width="3"></path><g id="node_text13" fill="black"><text id="kity_text_121" text-rendering="inherit" font-size="12" dy=".8em" y="231.70000004768372" x="1186.5">显示驱动</text></g></g><g id="minder_node14"><path id="kity_path_151" fill="rgba(0, 0, 0, .25)" stroke="none" d="M778,247h0a50,50,0,0,1,50,50v0a50,50,0,0,1,-50,50h0a50,50,0,0,1,-50,-50v0a50,50,0,0,1,50,-50z" display="none"></path><g id="node_expander13" style="cursor: pointer;" display="none"><path id="kity_path_132" fill="white" stroke="gray" d="M720.5,291.5A6,6,0,1,1,708.5,291.5A6,6,0,1,1,720.5,291.5"></path><path id="kity_path_133" fill="none" stroke="gray"></path></g><path id="node_outline14" fill="none" stroke="none" d="M725.5,280.5h90a5,5,0,0,1,5,5v12a5,5,0,0,1,-5,5h-90a5,5,0,0,1,-5,-5v-12a5,5,0,0,1,5,-5z" stroke-width="3"></path><g id="node_text14" fill="black"><text id="kity_text_129" text-rendering="inherit" font-size="12" dy=".8em" y="283.7000000476837" x="730.5">IDT与GDT管理</text></g></g></g></g></svg>